<svg width="80" height="80" viewBox="0 0 80 80" fill="none" xmlns="http://www.w3.org/2000/svg">
<g id="shopify">
<path id="Vector" fill-rule="evenodd" clip-rule="evenodd" d="M32.9716 29.0983C32.9345 29.0983 32.8627 29.0983 32.8256 29.0983C32.2099 29.0232 31.7031 28.459 31.7031 27.8197C31.666 27.2178 31.3395 13.1518 39.2743 9.95511C41.2673 9.16523 43.117 9.31558 44.6747 10.4817C46.5936 11.8732 47.9708 14.6563 48.8041 18.7181C49.3827 21.5765 49.4915 24.0586 49.4915 24.1715C49.5286 24.7731 49.0589 25.2247 48.4407 25.1117C47.825 25.0364 47.3181 24.4724 47.3181 23.8706C47.2093 21.3132 46.376 14.2803 43.6239 12.2492C42.7535 11.6099 41.6654 11.5346 40.3623 12.0612C33.5501 14.8066 33.8765 28.0077 33.8765 28.1581C33.8765 28.6847 33.5156 29.0983 32.9716 29.0983Z" fill="#595961"/>
<path id="Vector_2" opacity="0.46" fill-rule="evenodd" clip-rule="evenodd" d="M44.274 10.5568C42.825 9.50359 41.1237 9.35324 39.2741 10.0678C36.0498 11.3841 33.7675 14.8443 32.6449 20.1097C31.8116 23.9833 31.9204 27.4811 31.9204 27.6315C31.9204 27.8195 31.9921 28.0077 32.138 28.1581C32.2814 28.3084 32.4273 28.4214 32.6078 28.4214C32.6449 28.4214 32.682 28.4214 32.7166 28.4214C33.043 28.4214 33.2977 28.1581 33.2977 27.8195C33.2977 27.6691 32.9714 14.2424 39.9642 11.4217C41.3761 10.8577 42.6074 10.9328 43.6237 11.685C46.5563 13.8287 47.4266 21.0875 47.5354 23.6826C47.5354 24.0586 47.8619 24.4348 48.26 24.4722C48.6235 24.5099 48.9127 24.2466 48.9127 23.8706C48.8756 23.4193 48.4776 13.6408 44.274 10.5568Z" fill="#B2B2C2"/>
<path id="Vector_3" opacity="0.46" fill-rule="evenodd" clip-rule="evenodd" d="M32.6449 27.97C32.6078 27.97 32.6079 27.97 32.5732 27.97C32.3556 27.9324 32.1726 27.7067 32.138 27.4811C32.138 27.3305 32.0293 23.9082 32.8626 20.0343C33.9481 14.8819 36.2327 11.4593 39.383 10.1805C41.1583 9.46588 42.7533 9.61648 44.1306 10.5944C48.1883 13.5654 48.5864 23.1936 48.5864 23.6072C48.5864 23.8329 48.4059 23.9832 48.1883 23.9458C47.9707 23.9082 47.7901 23.7202 47.753 23.4569C47.753 23.3439 47.3549 13.904 43.6954 11.196C42.6074 10.4064 41.2672 10.2934 39.7465 10.8951C32.645 13.8663 32.9714 27.4811 32.9714 27.6314C33.006 27.8194 32.8625 27.97 32.6449 27.97Z" fill="#B2B2C2"/>
<path id="Vector_4" opacity="0.62" fill-rule="evenodd" clip-rule="evenodd" d="M35.5802 17.2139C35.8695 16.6499 36.1588 16.0856 36.4134 15.484C36.3046 15.672 35.5801 17.6278 33.3695 17.3268C33.3324 17.3268 34.6727 17.7405 35.5802 17.2139Z" fill="#595961"/>
<path id="Vector_5" opacity="0.62" fill-rule="evenodd" clip-rule="evenodd" d="M34.7814 19.6205C34.999 19.0186 35.2165 18.3793 35.3624 17.7777C35.2907 18.0034 34.9272 20.0342 32.6078 20.0342C32.6078 20.0342 33.9481 20.2975 34.7814 19.6205Z" fill="#595961"/>
<path id="Vector_6" opacity="0.62" fill-rule="evenodd" clip-rule="evenodd" d="M47.4986 14.7693C47.2093 14.0921 46.8828 13.4528 46.5564 12.7759C46.6652 13.0015 47.7532 15.1453 46.5218 16.6871C46.5218 16.6871 47.464 15.9352 47.4986 14.7693Z" fill="#595961"/>
<path id="Vector_7" opacity="0.62" fill-rule="evenodd" clip-rule="evenodd" d="M45.5081 11.3844C44.927 10.8955 44.3483 10.4442 43.7672 10.0305C43.9848 10.2185 45.906 11.61 45.7973 13.7164C45.7602 13.7164 46.0867 12.4752 45.5081 11.3844Z" fill="#595961"/>
<path id="Vector_8" opacity="0.62" fill-rule="evenodd" clip-rule="evenodd" d="M36.6308 15.1448C37.0659 14.6935 37.4269 14.2046 37.825 13.678C37.6816 13.8283 36.4849 15.3704 34.3485 14.8062C34.3485 14.8062 35.5799 15.4834 36.6308 15.1448Z" fill="#595961"/>
<path id="Vector_9" opacity="0.62" fill-rule="evenodd" clip-rule="evenodd" d="M37.9709 13.415C38.4778 13.039 38.9476 12.6628 39.4199 12.2491C39.2394 12.3621 37.7534 13.603 35.6887 12.7004C35.6887 12.7004 36.8829 13.5654 37.9709 13.415Z" fill="#595961"/>
<path id="Vector_10" opacity="0.62" fill-rule="evenodd" clip-rule="evenodd" d="M39.927 12.1734C40.5427 11.9854 41.1239 11.7598 41.7025 11.5341C41.4849 11.6092 39.6376 12.2861 37.8252 10.8569C37.8623 10.8569 38.8044 11.9854 39.927 12.1734Z" fill="#595961"/>
<path id="Vector_11" opacity="0.62" fill-rule="evenodd" clip-rule="evenodd" d="M41.7025 11.4971C42.2094 11.5724 42.7162 11.6101 43.2231 11.6477C43.0426 11.6101 41.4476 11.4971 40.5426 9.99268C40.5426 9.99268 40.9063 11.0082 41.7025 11.4971Z" fill="#595961"/>
<path id="Vector_12" opacity="0.62" fill-rule="evenodd" clip-rule="evenodd" d="M43.8043 12.3237C44.1654 12.7376 44.5659 13.1513 44.9986 13.5273C44.8552 13.3769 43.6238 12.1357 43.9132 10.5939C43.8761 10.5939 43.4779 11.4588 43.8043 12.3237Z" fill="#595961"/>
<path id="Vector_13" opacity="0.74" fill-rule="evenodd" clip-rule="evenodd" d="M48.1883 23.4192C48.1883 23.0054 47.7902 13.4901 43.8413 10.5944C43.0797 10.0301 42.2464 9.76685 41.376 9.76685C40.7232 9.76685 40.0358 9.91719 39.3113 10.2181C36.1586 11.4593 33.9481 14.8066 32.8626 19.9214C32.0293 23.7576 32.138 27.1802 32.138 27.3305C32.138 27.4435 32.2468 27.5562 32.3556 27.5562H32.3902C32.499 27.5562 32.5732 27.4811 32.5732 27.3682C32.5732 27.2178 32.2097 13.4901 39.4918 10.5567C41.0867 9.91719 42.464 10.0301 43.6237 10.8951C47.3896 13.6407 47.7902 23.2313 47.7902 23.344C47.7902 23.4569 47.899 23.5696 48.0078 23.5696C48.0078 23.5696 48.0077 23.5696 48.0423 23.5696C48.1165 23.6072 48.1883 23.5319 48.1883 23.4192Z" fill="url(#paint0_linear_1_100)"/>
<path id="Vector_14" fill-rule="evenodd" clip-rule="evenodd" d="M48.8041 18.7184C47.9708 14.6565 46.5935 11.9109 44.6747 10.4817C43.6238 9.72975 42.4988 9.39115 41.2674 9.46645C42.2465 9.5415 43.1516 9.8801 43.9848 10.4817C45.9061 11.8735 47.2835 14.6565 48.1168 18.7184C48.6954 21.5767 48.8041 24.0588 48.8041 24.1718C48.8041 24.6231 48.5865 24.9617 48.223 25.0744C48.2972 25.112 48.369 25.112 48.4061 25.112C49.0218 25.1873 49.4916 24.7734 49.4569 24.1718C49.4916 24.0588 49.3827 21.6144 48.8041 18.7184Z" fill="url(#paint1_linear_1_100)"/>
<path id="Vector_15" fill-rule="evenodd" clip-rule="evenodd" d="M39.6748 12.0613C32.8626 14.8067 33.1888 28.0078 33.1888 28.1582C33.1888 28.6095 32.9713 28.9481 32.6078 29.0608C32.682 29.0984 32.7167 29.0984 32.7909 29.0984C32.8255 29.0984 32.8996 29.0984 32.9342 29.0984C33.4782 29.0984 33.8392 28.6848 33.8392 28.1582C33.8392 28.0078 33.5154 14.8444 40.3252 12.099C40.7974 11.911 41.2325 11.798 41.6306 11.7604C41.0495 11.6477 40.3993 11.7604 39.6748 12.0613Z" fill="url(#paint2_linear_1_100)"/>
<path id="Vector_16" fill-rule="evenodd" clip-rule="evenodd" d="M49.9984 15.3329L19.2753 25.1865C19.2753 25.1865 17.9722 25.5628 17.6458 25.9764C17.3194 26.39 17.2477 27.5559 17.2477 27.5559L12.5 65.5418L48.1513 72.4621L50.9059 15.2953C50.5078 15.22 50.1072 15.2953 49.9984 15.3329Z" fill="url(#paint3_linear_1_100)"/>
<path id="Vector_17" fill-rule="evenodd" clip-rule="evenodd" d="M60.6162 20.2222C60.6162 20.2222 60.5791 19.9213 60.3986 19.8086C60.2527 19.6956 60.0721 19.6956 60.0721 19.6956L55.0353 19.3196L51.341 15.5211C51.1951 15.4081 51.0493 15.3331 50.8688 15.2954L48.1168 72.4622L67.4259 68.137L60.6162 20.2222Z" fill="url(#paint4_linear_1_100)"/>
<path id="Vector_18" fill-rule="evenodd" clip-rule="evenodd" d="M37.3184 47.0754C36.7744 46.3231 36.124 45.6462 35.4712 45.0443C34.8185 44.4427 34.1311 43.9537 33.4412 43.5024C32.9714 43.2015 32.5362 42.9006 32.1727 42.5996C31.8117 42.2989 31.5224 41.998 31.3048 41.7347C31.0872 41.4337 30.9066 41.1704 30.7978 40.8698C30.689 40.5688 30.6519 40.2679 30.6519 39.9669C30.6519 39.5533 30.7607 39.1396 30.9066 38.8011C31.0501 38.4627 31.3047 38.1618 31.557 37.8985C31.8487 37.6352 32.1727 37.4472 32.5733 37.2968C32.9714 37.1462 33.4411 37.0712 33.948 37.0335C34.492 36.9959 35.036 37.0335 35.5429 37.0712C36.0498 37.1086 36.5221 37.2215 36.9919 37.3342C37.4271 37.4472 37.8623 37.5975 38.2233 37.7481C38.5868 37.8985 38.9478 38.0488 39.2025 38.1994L41.5937 30.8279C41.2326 30.6399 40.7974 30.4517 40.3252 30.339C39.8183 30.1884 39.2742 30.0757 38.6585 30.0004C38.0428 29.9253 37.39 29.8877 36.7026 29.8877C36.0152 29.8877 35.2908 29.9253 34.5292 30.038C32.8997 30.2637 31.4482 30.715 30.1451 31.3919C28.9137 32.0314 27.8257 32.8587 26.9207 33.8743C26.0503 34.8521 25.3628 35.9804 24.8559 37.2592C24.3836 38.5004 24.0944 39.8919 24.0227 41.3961C23.9856 42.2989 24.0573 43.1262 24.2749 43.8784C24.4554 44.6307 24.7471 45.3453 25.1452 46.0222C25.5062 46.6991 25.9785 47.301 26.4854 47.865C26.9923 48.4292 27.608 48.9558 28.2237 49.4448C28.7306 49.8208 29.1658 50.1968 29.5293 50.5353C29.8903 50.8739 30.1822 51.2123 30.3973 51.5885C30.6149 51.9269 30.7607 52.2655 30.8695 52.6415C30.9783 52.98 31.0154 53.356 30.9783 53.7323C30.9783 54.1083 30.8696 54.4843 30.7237 54.7852C30.5803 55.0861 30.3973 55.3871 30.108 55.6127C29.8557 55.8384 29.5294 55.9887 29.1659 56.064C28.8049 56.1391 28.3697 56.1767 27.8974 56.1017C27.3559 56.0264 26.8118 55.876 26.3049 55.6501C25.798 55.4621 25.2887 55.1988 24.8189 54.9356C24.3491 54.6725 23.9139 54.3716 23.5504 54.1083C23.1523 53.845 22.8259 53.544 22.5737 53.3184L20.9416 58.9224C21.1963 59.2984 21.5574 59.6369 21.9555 59.9753C22.3561 60.3139 22.8259 60.6522 23.3699 60.9908C23.9139 61.2918 24.4925 61.5925 25.1082 61.8557C25.7239 62.119 26.4138 62.3447 27.1012 62.5329H27.1383H27.1728H27.21H27.2471C28.7307 62.8713 30.1451 62.9466 31.4853 62.7586C32.8626 62.5703 34.131 62.0814 35.2165 61.3294C36.3391 60.5395 37.2466 59.4864 37.934 58.0948C38.6239 56.7033 39.0219 55.0108 39.0936 53.0927C39.1307 51.8892 38.9849 50.8363 38.6585 49.8584C38.3321 48.7302 37.8624 47.865 37.3184 47.0754Z" fill="url(#paint5_linear_1_100)"/>
<path id="Vector_19" opacity="0.226763" fill-rule="evenodd" clip-rule="evenodd" d="M21.1766 59.2287C21.0925 59.1291 21.0133 59.0272 20.9416 58.9226L22.5737 53.3187C22.5959 53.3396 22.6206 53.3612 22.6453 53.3834C22.8877 53.5999 23.1894 53.8696 23.5504 54.1085C23.9139 54.3718 24.3491 54.6728 24.8189 54.9361C25.2887 55.1991 25.798 55.4624 26.3049 55.6507C26.8118 55.8763 27.3559 56.0266 27.8974 56.1019C28.3697 56.177 28.8049 56.1396 29.1659 56.0643C29.5294 55.989 29.8557 55.8386 30.1079 55.613C30.3972 55.3874 30.5803 55.0864 30.7237 54.7855C30.8696 54.4845 30.9783 54.1085 30.9783 53.7325C31.0154 53.3563 30.9783 52.9803 30.8695 52.6417C30.7607 52.2657 30.6149 51.9271 30.3973 51.5888C30.192 51.2313 29.92 50.9079 29.5812 50.5861C29.7593 50.7871 29.9101 50.9935 30.0363 51.2125C30.2538 51.5511 30.3973 51.8895 30.5061 52.2657C30.6149 52.6041 30.652 52.9803 30.6149 53.3563C30.6149 53.7325 30.5061 54.1085 30.3627 54.4095C30.2168 54.7104 30.0362 55.0111 29.7469 55.2368C29.4923 55.4624 29.1659 55.613 28.8049 55.688C28.4414 55.7633 28.0062 55.801 27.5364 55.7257C26.9924 55.6506 26.4484 55.5001 25.9415 55.2744C25.4346 55.0864 24.9276 54.8231 24.4553 54.5598C23.9855 54.2965 23.5504 53.9958 23.1894 53.7325C22.8259 53.4936 22.5243 53.2239 22.2819 53.0074C22.2572 52.9852 22.2348 52.9636 22.2101 52.9427L20.5806 58.5464C20.7413 58.7858 20.9466 59.01 21.1766 59.2287ZM26.5151 47.8995C26.3791 47.7649 26.2481 47.6283 26.122 47.4893C25.6151 46.925 25.1453 46.3234 24.7818 45.6465C24.3837 44.9693 24.0943 44.2547 23.9138 43.5027C23.6962 42.7505 23.622 41.9229 23.6591 41.0204C23.7308 39.5159 24.0227 38.1244 24.4925 36.8832C24.9994 35.6046 25.6893 34.4764 26.5572 33.4985C27.4647 32.483 28.5501 31.6555 29.7815 31.0162C31.0871 30.3393 32.5361 29.888 34.1656 29.6623C34.9272 29.5494 35.6518 29.5117 36.3392 29.5117C37.029 29.5117 37.6818 29.5494 38.2975 29.6247C38.9132 29.7 39.4572 29.8127 39.9641 29.9633C40.434 30.076 40.8691 30.2639 41.2326 30.4519L41.1757 30.6279C40.9136 30.514 40.6268 30.4113 40.3251 30.3392C39.8182 30.1889 39.2742 30.076 38.6585 30.0007C38.0428 29.9256 37.39 29.888 36.7026 29.888C36.0152 29.888 35.2908 29.9256 34.5292 30.0383C32.8997 30.264 31.4482 30.7152 30.1451 31.3924C28.9137 32.0317 27.8256 32.859 26.9206 33.8745C26.0503 34.8524 25.3628 35.9806 24.8559 37.2594C24.3836 38.5006 24.0944 39.8921 24.0227 41.3964C23.9856 42.2992 24.0572 43.1265 24.2748 43.8787C24.4553 44.6309 24.7471 45.3455 25.1452 46.0225C25.5062 46.6994 25.9785 47.3013 26.4854 47.8653C26.4953 47.8766 26.5052 47.8882 26.5151 47.8995ZM31.4357 41.889C31.6336 42.1127 31.8809 42.3563 32.1727 42.5999C32.5362 42.9008 32.9714 43.2018 33.4412 43.5027C34.1311 43.954 34.8184 44.4429 35.4712 45.0446C35.6616 45.2198 35.8496 45.4011 36.0375 45.5891C35.7358 45.2648 35.4217 44.958 35.1077 44.6686C34.4573 44.0667 33.7676 43.5778 33.0802 43.1265C32.6079 42.8255 32.1727 42.5248 31.8117 42.2239C31.6757 42.1117 31.552 41.9995 31.4357 41.889Z" fill="black"/>
<path id="Vector_20" opacity="0.41" fill-rule="evenodd" clip-rule="evenodd" d="M56.2665 61.8189L55.0351 19.3198L54.8175 19.0942L55.3987 61.217C55.3987 61.217 50.2901 69.2654 49.5285 69.0398C48.4059 68.7014 51.739 15.9349 51.739 15.9349L51.3756 15.5589C51.2322 15.446 51.0492 15.3709 50.9058 15.3333L48.1883 71.7101L48.1512 72.5L49.0932 71.2588L56.2665 61.8189Z" fill="url(#paint6_linear_1_100)"/>
<path id="Vector_21" fill-rule="evenodd" clip-rule="evenodd" d="M42.3897 17.778C41.957 19.5455 41.4131 21.2003 41.015 22.2158C40.7603 22.8177 41.0496 23.3817 41.5936 23.457C42.1747 23.5323 42.825 23.1184 43.0426 22.5168C43.0797 22.4038 44.0563 19.9594 44.6745 17.0634V17.0258L42.3897 17.778Z" fill="url(#paint7_linear_1_100)"/>
<path id="Vector_22" fill-rule="evenodd" clip-rule="evenodd" d="M26.0504 23.0429C25.5435 24.1711 25.0366 25.149 24.6731 25.826C24.3492 26.3902 24.5297 26.9918 25.0737 27.1422C25.6152 27.3304 26.3396 26.9918 26.666 26.4276C26.7031 26.3525 27.7541 24.5097 28.6962 22.1777L26.0504 23.0429Z" fill="url(#paint8_linear_1_100)"/>
<path id="Vector_23" opacity="0.32" fill-rule="evenodd" clip-rule="evenodd" d="M48.1512 72.462L56.2665 61.8182L67.5 68.1368L48.1512 72.462Z" fill="url(#paint9_linear_1_100)"/>
<path id="Vector_24" opacity="0.19" fill-rule="evenodd" clip-rule="evenodd" d="M48.1512 72.462L56.1948 61.8182L67.5 68.1368L48.1512 72.462Z" fill="url(#paint10_linear_1_100)"/>
<path id="Vector_25" opacity="0.19" fill-rule="evenodd" clip-rule="evenodd" d="M48.1512 72.462L56.1948 61.8182L67.5 68.1368L48.1512 72.462Z" fill="url(#paint11_linear_1_100)"/>
<path id="Vector_26" opacity="0.6" fill-rule="evenodd" clip-rule="evenodd" d="M40.2535 42.6754C44.457 48.5801 47.2832 54.9737 48.6951 61.1794L50.9058 15.2579C50.5077 15.1829 50.1071 15.2579 49.9983 15.2956L19.2751 25.1871C19.2751 25.1871 18.9857 25.2621 18.6223 25.4127C26.4137 28.1958 34.2028 34.1757 40.2535 42.6754Z" fill="url(#paint12_linear_1_100)"/>
<path id="Vector_27" fill-rule="evenodd" clip-rule="evenodd" d="M60.4328 19.8462C60.6158 19.9968 60.6159 20.2225 60.6159 20.2225L67.3539 68.0994L56.2663 61.7811L55.035 19.2822L60.0001 19.6582C60.0347 19.6959 60.2523 19.6959 60.4328 19.8462Z" fill="url(#paint13_linear_1_100)"/>
<path id="Vector_28" fill-rule="evenodd" clip-rule="evenodd" d="M59.637 19.9595C59.637 19.9595 59.8546 19.9595 60.0351 20.1475C60.2156 20.2981 60.2526 20.5238 60.2526 20.5238L66.8844 67.8744L67.3913 68.1753L60.6507 20.2605C60.6507 20.2605 60.6161 20.0348 60.4702 19.8845C60.2897 19.7339 60.0351 19.7339 60.0351 19.7339L55.0724 19.3579L59.637 19.9595Z" fill="url(#paint14_linear_1_100)"/>
<path id="Vector_29" fill-rule="evenodd" clip-rule="evenodd" d="M12.5 65.5413L48.1513 72.4615L49.892 33.2721L16.9335 34.209L12.5 65.5413Z" fill="url(#paint15_linear_1_100)"/>
<path id="Vector_30" opacity="0.3" fill-rule="evenodd" clip-rule="evenodd" d="M24.2031 25.7346C23.8792 26.6487 24.1981 27.6091 24.9201 27.8803C25.6397 28.1512 26.4854 27.63 26.8118 26.7161C27.1357 25.8022 26.8143 24.8416 26.0947 24.5706C25.3752 24.2995 24.527 24.8207 24.2031 25.7346Z" fill="white"/>
<path id="Vector_31" opacity="0.89" fill-rule="evenodd" clip-rule="evenodd" d="M24.1638 25.3008C23.8399 26.2147 24.1613 27.1754 24.8808 27.4463C25.6004 27.7175 26.4485 27.1963 26.7725 26.2824C27.0964 25.3683 26.7775 24.4076 26.0554 24.1367C25.3359 23.8655 24.4902 24.3867 24.1638 25.3008Z" fill="black"/>
<path id="Vector_32" fill-rule="evenodd" clip-rule="evenodd" d="M55.0723 19.3196L51.3756 15.5211C51.2322 15.4081 51.0492 15.3331 50.9058 15.2954L48.1512 72.4622L56.3036 61.7808L55.0723 19.3196Z" fill="url(#paint16_linear_1_100)"/>
<path id="Vector_33" fill-rule="evenodd" clip-rule="evenodd" d="M49.9985 15.3337L19.2753 25.1873C19.2753 25.1873 17.9722 25.5635 17.6458 25.9772C17.6087 26.0148 17.6086 26.0525 17.574 26.0901L48.5495 17.2142C48.8041 17.1389 49.4198 16.9132 49.3481 18.756L47.4639 72.3875L48.1168 72.5005L50.8688 15.3337C50.5078 15.2208 50.1073 15.2961 49.9985 15.3337Z" fill="url(#paint17_linear_1_100)"/>
<path id="Vector_34" fill-rule="evenodd" clip-rule="evenodd" d="M49.9985 15.3337L19.2753 25.1873C19.2753 25.1873 17.9722 25.5635 17.6458 25.9772C17.6087 26.0148 17.6086 26.0525 17.574 26.0901L24.7473 24.0214L49.4198 16.0859C49.5286 16.0483 49.9268 15.973 50.3249 16.0483L47.6074 72.3875L48.1168 72.5005L50.8688 15.3337C50.5078 15.2208 50.1073 15.2961 49.9985 15.3337Z" fill="url(#paint18_linear_1_100)"/>
<path id="Vector_35" opacity="0.32" fill-rule="evenodd" clip-rule="evenodd" d="M57.8987 62.7212L56.2666 61.781L48.1168 72.4621L48.5495 72.3492C48.5495 72.3492 55.7251 62.7589 56.3755 62.4579C56.8477 62.2699 57.8987 62.7212 57.8987 62.7212Z" fill="url(#paint19_linear_1_100)"/>
<path id="Vector_36" opacity="0.57" fill-rule="evenodd" clip-rule="evenodd" d="M48.1512 72.4621L56.3036 61.781C56.2665 61.8187 51.1233 67.648 48.1512 72.4621Z" fill="url(#paint20_linear_1_100)"/>
<path id="Vector_37" opacity="0.46" fill-rule="evenodd" clip-rule="evenodd" d="M67.4998 68.1368L56.3035 61.8182C56.2664 61.8182 57.572 62.0439 67.4998 68.1368Z" fill="url(#paint21_linear_1_100)"/>
<path id="Vector_38" opacity="0.3" fill-rule="evenodd" clip-rule="evenodd" d="M40.7678 21.9845C40.4414 22.8986 40.7628 23.8593 41.4824 24.1304C42.2044 24.4016 43.0501 23.8804 43.374 22.9665C43.7004 22.0524 43.379 21.0917 42.6594 20.8206C41.9399 20.5496 41.0917 21.0706 40.7678 21.9845Z" fill="white"/>
<path id="Vector_39" opacity="0.89" fill-rule="evenodd" clip-rule="evenodd" d="M40.7283 21.5524C40.4043 22.4666 40.7259 23.4272 41.4454 23.6984C42.165 23.9693 43.013 23.4484 43.3369 22.5342C43.6608 21.6203 43.3419 20.6597 42.6223 20.3885C41.9003 20.1174 41.0546 20.6385 40.7283 21.5524Z" fill="black"/>
<path id="Vector_40" fill-rule="evenodd" clip-rule="evenodd" d="M25.4717 27.1427C25.4346 27.1427 25.3629 27.1427 25.3258 27.1427C24.7472 27.0677 24.3491 26.5034 24.4208 25.8642C24.4926 25.2623 26.5572 11.1962 35.036 7.99954C37.1724 7.20966 38.9849 7.36001 40.3622 8.52613C42.0288 9.91765 42.9338 12.7007 43.0797 16.7626C43.1885 19.6209 42.8622 22.103 42.8622 22.2159C42.7905 22.8176 42.2465 23.2691 41.6654 23.1562C41.0868 23.0809 40.6515 22.5169 40.7603 21.915C41.0867 19.3576 41.4477 12.3247 39.022 10.2936C38.2604 9.65436 37.2096 9.57906 35.7977 10.1056C28.5157 12.851 26.5943 26.0521 26.5943 26.1648C26.4484 26.7291 26.0157 27.1427 25.4717 27.1427Z" fill="#595961"/>
<path id="Vector_41" opacity="0.46" fill-rule="evenodd" clip-rule="evenodd" d="M39.927 8.60097C38.6586 7.54804 36.992 7.39769 34.999 8.11228C31.557 9.4285 28.6589 12.8885 26.6659 18.1162C25.1823 21.9901 24.673 25.4877 24.673 25.6383C24.6384 25.8263 24.7101 26.0143 24.8189 26.1649C24.9277 26.3152 25.0735 26.4282 25.2541 26.4282C25.2887 26.4282 25.3258 26.4282 25.3629 26.4282C25.6893 26.4282 25.9785 26.1649 26.0156 25.8263C26.0502 25.676 27.9716 12.2492 35.4713 9.4285C36.992 8.86427 38.2233 8.93957 39.0937 9.6918C41.6653 11.8356 41.3043 19.0941 40.9779 21.6891C40.9408 22.0654 41.1955 22.4414 41.5565 22.479C41.92 22.5167 42.281 22.2534 42.3181 21.8774C42.3552 21.4635 43.6237 11.6852 39.927 8.60097Z" fill="#B2B2C2"/>
<path id="Vector_42" opacity="0.81" fill-rule="evenodd" clip-rule="evenodd" d="M25.3259 26.0145C25.2888 26.0145 25.2888 26.0145 25.2542 26.0145C25.0366 25.9768 24.8907 25.7512 24.9278 25.5255C24.9649 25.3749 25.4348 21.9526 26.9208 18.0787C28.9138 12.9263 31.7401 9.50372 35.1079 8.2249C37.0291 7.51031 38.587 7.66091 39.7813 8.63879C43.3321 11.6098 42.1007 21.238 42.0289 21.6517C41.9919 21.8773 41.8114 22.0277 41.5567 21.9902C41.3416 21.9526 41.1957 21.7646 41.1957 21.5013C41.1957 21.3884 42.4271 11.9484 39.2398 9.24043C38.2977 8.52584 36.9922 8.45079 35.3997 9.05243C27.7542 11.9484 25.7612 25.5255 25.7612 25.6759C25.7241 25.8639 25.5435 26.0145 25.3259 26.0145Z" fill="#B2B2C2"/>
<path id="Vector_43" opacity="0.42" fill-rule="evenodd" clip-rule="evenodd" d="M30.108 15.2577C30.5061 14.6937 30.8695 14.1295 31.2305 13.5278C31.0871 13.7158 30.0362 15.6716 27.8627 15.3706C27.8256 15.3706 29.0942 15.7843 30.108 15.2577Z" fill="#595961"/>
<path id="Vector_44" opacity="0.42" fill-rule="evenodd" clip-rule="evenodd" d="M28.8768 17.6643C29.2032 17.0625 29.5295 16.4232 29.7817 15.8215C29.6729 16.0472 28.9484 18.078 26.6661 18.078C26.6661 18.078 27.9347 18.3413 28.8768 17.6643Z" fill="#595961"/>
<path id="Vector_45" opacity="0.42" fill-rule="evenodd" clip-rule="evenodd" d="M27.9346 20.1475C28.2239 19.5079 28.4415 18.8687 28.6591 18.2294C28.5503 18.455 28.1522 20.5235 25.7611 20.7868C25.7611 20.7491 27.0642 20.8997 27.9346 20.1475Z" fill="#595961"/>
<path id="Vector_46" opacity="0.62" fill-rule="evenodd" clip-rule="evenodd" d="M42.4267 12.8131C42.2462 12.1359 42.0657 11.4966 41.811 10.8197C41.8827 11.0453 42.6073 13.1891 41.1237 14.731C41.1237 14.731 42.2091 13.979 42.4267 12.8131Z" fill="#595961"/>
<path id="Vector_47" opacity="0.62" fill-rule="evenodd" clip-rule="evenodd" d="M41.0152 9.42821C40.5083 8.93927 39.9988 8.48798 39.4919 8.07434C39.6749 8.26234 41.3762 9.65386 40.9063 11.76C40.8693 11.76 41.4133 10.5188 41.0152 9.42821Z" fill="#595961"/>
<path id="Vector_48" opacity="0.62" fill-rule="evenodd" clip-rule="evenodd" d="M42.7903 16.2734C42.7532 15.5965 42.6445 14.8819 42.5357 14.2047C42.5357 14.468 42.8992 16.6871 41.1584 17.8906C41.1584 17.8906 42.3551 17.364 42.7903 16.2734Z" fill="#595961"/>
<path id="Vector_49" opacity="0.62" fill-rule="evenodd" clip-rule="evenodd" d="M42.971 19.8089C43.0081 19.132 43.0081 18.4174 42.971 17.7405C42.971 18.0038 43.008 20.2228 41.1584 21.2381C41.1584 21.2007 42.427 20.8245 42.971 19.8089Z" fill="#595961"/>
<path id="Vector_50" opacity="0.42" fill-rule="evenodd" clip-rule="evenodd" d="M27.101 22.8925C27.3186 22.2155 27.4645 21.5386 27.6079 20.899C27.5362 21.1247 27.2099 23.2684 24.9993 23.795C25.0364 23.795 26.3394 23.7574 27.101 22.8925Z" fill="#595961"/>
<path id="Vector_51" opacity="0.42" fill-rule="evenodd" clip-rule="evenodd" d="M31.4854 13.1886C31.9923 12.7373 32.4645 12.2484 32.8997 11.7218C32.7167 11.8721 31.2677 13.4143 29.2401 12.85C29.2748 12.85 30.3974 13.5272 31.4854 13.1886Z" fill="#595961"/>
<path id="Vector_52" opacity="0.42" fill-rule="evenodd" clip-rule="evenodd" d="M33.1146 11.4595C33.6957 11.0835 34.2397 10.7072 34.7812 10.2936C34.5661 10.4065 32.8994 11.6474 30.9782 10.7449C30.9782 10.7449 31.992 11.6098 33.1146 11.4595Z" fill="#595961"/>
<path id="Vector_53" opacity="0.62" fill-rule="evenodd" clip-rule="evenodd" d="M35.3253 10.2184C35.9781 10.0302 36.5938 9.80456 37.2095 9.57892C36.9919 9.65421 35.0361 10.3311 33.4412 8.90198C33.4412 8.90198 34.2027 10.0302 35.3253 10.2184Z" fill="#595961"/>
<path id="Vector_54" opacity="0.62" fill-rule="evenodd" clip-rule="evenodd" d="M37.1724 9.54157C37.6818 9.61686 38.1888 9.65452 38.6957 9.69217C38.5152 9.65452 36.9572 9.54158 36.2674 8.03711C36.3045 8.03711 36.485 9.05263 37.1724 9.54157Z" fill="#595961"/>
<path id="Vector_55" opacity="0.62" fill-rule="evenodd" clip-rule="evenodd" d="M39.1308 10.3684C39.4572 10.7821 39.7811 11.1957 40.1075 11.5719C39.9987 11.4213 38.9849 10.1804 39.4918 8.63831C39.5289 8.63831 38.9849 9.50348 39.1308 10.3684Z" fill="#595961"/>
<path id="Vector_56" fill-rule="evenodd" clip-rule="evenodd" d="M41.6305 21.4634C41.6651 21.0498 42.899 11.5346 39.4571 8.63857C38.8043 8.07457 38.0081 7.81128 37.1377 7.81128C36.4849 7.81128 35.7604 7.96163 34.9989 8.26257C31.6657 9.50374 28.8764 12.851 26.9205 17.9658C25.4344 21.802 24.9645 25.2246 24.9274 25.3749C24.9274 25.4876 24.9993 25.6006 25.1081 25.6006H25.1451C25.2539 25.6006 25.3256 25.5253 25.3256 25.4126C25.3627 25.262 27.3185 11.5345 35.1075 8.60091C36.7741 7.96163 38.1885 8.07457 39.2023 8.93951C42.4984 11.6849 41.2671 21.2754 41.2325 21.3884C41.2325 21.5011 41.3042 21.614 41.413 21.614C41.413 21.614 41.4129 21.614 41.4476 21.614C41.5564 21.6517 41.6305 21.5764 41.6305 21.4634Z" fill="url(#paint22_linear_1_100)"/>
<path id="Vector_57" fill-rule="evenodd" clip-rule="evenodd" d="M43.0796 16.7622C42.9338 12.7004 42.0287 9.95473 40.3622 8.52556C39.4572 7.77357 38.3693 7.43498 37.1379 7.51027C38.08 7.58533 38.9479 7.92392 39.6749 8.52556C41.3415 9.91733 42.2464 12.7004 42.3898 16.7622C42.4986 19.6206 42.1747 22.1027 42.1747 22.2156C42.1005 22.6669 41.8112 23.0055 41.4477 23.1182C41.5219 23.1558 41.5565 23.1558 41.6306 23.1558C42.2093 23.2311 42.7533 22.8172 42.825 22.2156C42.8621 22.1027 43.1884 19.6582 43.0796 16.7622Z" fill="url(#paint23_linear_1_100)"/>
<path id="Vector_58" fill-rule="evenodd" clip-rule="evenodd" d="M35.0733 10.1053C27.7912 12.8507 25.87 26.0518 25.87 26.2022C25.7982 26.6535 25.5064 26.9921 25.1454 27.1048C25.2171 27.1424 25.2542 27.1424 25.3259 27.1424C25.363 27.1424 25.4347 27.1424 25.4718 27.1424C26.0158 27.1424 26.4485 26.7288 26.5227 26.2022C26.5573 26.0518 28.4415 12.8884 35.7236 10.1427C36.233 9.95475 36.6658 9.84204 37.0663 9.8044C36.5223 9.7291 35.8324 9.84204 35.0733 10.1053Z" fill="url(#paint24_linear_1_100)"/>
</g>
<defs>
<linearGradient id="paint0_linear_1_100" x1="34.0271" y1="9.85174" x2="32.8909" y2="25.3222" gradientUnits="userSpaceOnUse">
<stop stop-color="white" stop-opacity="0.65"/>
<stop offset="1" stop-color="white" stop-opacity="0.01"/>
</linearGradient>
<linearGradient id="paint1_linear_1_100" x1="42.3306" y1="18.7071" x2="50.3306" y2="25.7141" gradientUnits="userSpaceOnUse">
<stop stop-opacity="0.01"/>
<stop offset="1" stop-opacity="0.4"/>
</linearGradient>
<linearGradient id="paint2_linear_1_100" x1="39.1233" y1="26.8129" x2="47.5911" y2="18.9257" gradientUnits="userSpaceOnUse">
<stop stop-opacity="0.01"/>
<stop offset="1" stop-opacity="0.4"/>
</linearGradient>
<linearGradient id="paint3_linear_1_100" x1="28.345" y1="3.79598" x2="-4.54454" y2="41.692" gradientUnits="userSpaceOnUse">
<stop stop-color="#B8D26E"/>
<stop offset="1" stop-color="#7FB525"/>
</linearGradient>
<linearGradient id="paint4_linear_1_100" x1="73.3356" y1="13.2835" x2="55.2851" y2="13.6187" gradientUnits="userSpaceOnUse">
<stop stop-color="#B4E034"/>
<stop offset="1" stop-color="#60A927"/>
</linearGradient>
<linearGradient id="paint5_linear_1_100" x1="19.6459" y1="38.5525" x2="4.84694" y2="74.591" gradientUnits="userSpaceOnUse">
<stop stop-color="white"/>
<stop offset="1" stop-color="#CECEEB"/>
</linearGradient>
<linearGradient id="paint6_linear_1_100" x1="40.8642" y1="127.304" x2="64.3027" y2="127.257" gradientUnits="userSpaceOnUse">
<stop stop-color="#1D1D1B" stop-opacity="0.5"/>
<stop offset="0.038033" stop-color="#1D1D1B" stop-opacity="0.4837"/>
<stop offset="0.4243" stop-color="#1D1D1B" stop-opacity="0.3185"/>
<stop offset="1" stop-color="#1D1D1B" stop-opacity="0.01"/>
</linearGradient>
<linearGradient id="paint7_linear_1_100" x1="43.5865" y1="14.5016" x2="39.6981" y2="16.5944" gradientUnits="userSpaceOnUse">
<stop stop-opacity="0.01"/>
<stop offset="1" stop-opacity="0.4"/>
</linearGradient>
<linearGradient id="paint8_linear_1_100" x1="27.2843" y1="20.7085" x2="24.5509" y2="23.0576" gradientUnits="userSpaceOnUse">
<stop stop-opacity="0.01"/>
<stop offset="1" stop-opacity="0.4"/>
</linearGradient>
<linearGradient id="paint9_linear_1_100" x1="53.9472" y1="68.1649" x2="54.2239" y2="71.8128" gradientUnits="userSpaceOnUse">
<stop stop-opacity="0.01"/>
<stop offset="1" stop-opacity="0.4"/>
</linearGradient>
<linearGradient id="paint10_linear_1_100" x1="47.486" y1="62.8244" x2="48.1276" y2="72.3088" gradientUnits="userSpaceOnUse">
<stop stop-color="white" stop-opacity="0.5"/>
<stop offset="0.0896271" stop-color="white" stop-opacity="0.4552"/>
<stop offset="1" stop-color="white" stop-opacity="0.01"/>
</linearGradient>
<linearGradient id="paint11_linear_1_100" x1="46.2521" y1="64.2996" x2="47.3934" y2="74.431" gradientUnits="userSpaceOnUse">
<stop stop-opacity="0.01"/>
<stop offset="1" stop-opacity="0.4"/>
</linearGradient>
<linearGradient id="paint12_linear_1_100" x1="41.7741" y1="6.00968" x2="12.5043" y2="22.9381" gradientUnits="userSpaceOnUse">
<stop stop-color="white" stop-opacity="0.5"/>
<stop offset="1" stop-color="white" stop-opacity="0.01"/>
</linearGradient>
<linearGradient id="paint13_linear_1_100" x1="47.4216" y1="94.4836" x2="73.2562" y2="94.5358" gradientUnits="userSpaceOnUse">
<stop stop-color="#1D1D1B" stop-opacity="0.5"/>
<stop offset="0.0896271" stop-color="#1D1D1B" stop-opacity="0.4552"/>
<stop offset="1" stop-color="#1D1D1B" stop-opacity="0.01"/>
</linearGradient>
<linearGradient id="paint14_linear_1_100" x1="65.9226" y1="17.9327" x2="62.2526" y2="18.8319" gradientUnits="userSpaceOnUse">
<stop stop-color="white" stop-opacity="0.4"/>
<stop offset="1" stop-color="white" stop-opacity="0.01"/>
</linearGradient>
<linearGradient id="paint15_linear_1_100" x1="32.9961" y1="72.8801" x2="34.9045" y2="63.6798" gradientUnits="userSpaceOnUse">
<stop stop-color="#1D1D1B" stop-opacity="0.5"/>
<stop offset="0.0896271" stop-color="#1D1D1B" stop-opacity="0.4552"/>
<stop offset="1" stop-color="#1D1D1B" stop-opacity="0.01"/>
</linearGradient>
<linearGradient id="paint16_linear_1_100" x1="44.0292" y1="126.133" x2="67.5519" y2="126.153" gradientUnits="userSpaceOnUse">
<stop stop-color="#1D1D1B" stop-opacity="0.5"/>
<stop offset="1" stop-color="#1D1D1B" stop-opacity="0.01"/>
</linearGradient>
<linearGradient id="paint17_linear_1_100" x1="22.5342" y1="12.0194" x2="11.1258" y2="55.8503" gradientUnits="userSpaceOnUse">
<stop stop-color="white" stop-opacity="0.5"/>
<stop offset="1" stop-color="white" stop-opacity="0.01"/>
</linearGradient>
<linearGradient id="paint18_linear_1_100" x1="22.5342" y1="12.0194" x2="11.1258" y2="55.8503" gradientUnits="userSpaceOnUse">
<stop stop-color="white" stop-opacity="0.5"/>
<stop offset="1" stop-color="white" stop-opacity="0.01"/>
</linearGradient>
<linearGradient id="paint19_linear_1_100" x1="50.221" y1="57.9655" x2="41.2037" y2="70.3766" gradientUnits="userSpaceOnUse">
<stop stop-color="white" stop-opacity="0.5"/>
<stop offset="0.0896271" stop-color="white" stop-opacity="0.4552"/>
<stop offset="1" stop-color="white" stop-opacity="0.01"/>
</linearGradient>
<linearGradient id="paint20_linear_1_100" x1="52.9408" y1="60.8189" x2="52.048" y2="62.8202" gradientUnits="userSpaceOnUse">
<stop stop-opacity="0.01"/>
<stop offset="1" stop-opacity="0.4"/>
</linearGradient>
<linearGradient id="paint21_linear_1_100" x1="61.7953" y1="63.4649" x2="61.7513" y2="64.0029" gradientUnits="userSpaceOnUse">
<stop stop-opacity="0.01"/>
<stop offset="1" stop-opacity="0.4"/>
</linearGradient>
<linearGradient id="paint22_linear_1_100" x1="29.3239" y1="6.54525" x2="25.4257" y2="21.9452" gradientUnits="userSpaceOnUse">
<stop stop-color="white" stop-opacity="0.65"/>
<stop offset="1" stop-color="white" stop-opacity="0.01"/>
</linearGradient>
<linearGradient id="paint23_linear_1_100" x1="38.0478" y1="15.4288" x2="44.829" y2="22.323" gradientUnits="userSpaceOnUse">
<stop stop-opacity="0.01"/>
<stop offset="1" stop-opacity="0.4"/>
</linearGradient>
<linearGradient id="paint24_linear_1_100" x1="33.7133" y1="25.5814" x2="43.0825" y2="15.9592" gradientUnits="userSpaceOnUse">
<stop stop-opacity="0.01"/>
<stop offset="1" stop-opacity="0.4"/>
</linearGradient>
</defs>
</svg>
